<svg width="20" height="17" viewBox="0 0 20 17" fill="none" xmlns="http://www.w3.org/2000/svg">
<path d="M0 4C0 2.114 -5.96046e-08 1.172 0.586 0.586C1.172 -5.96046e-08 2.114 0 4 0H16C17.886 0 18.828 -5.96046e-08 19.414 0.586C20 1.172 20 2.114 20 4C20 4.471 20 4.707 19.854 4.854C19.707 5 19.47 5 19 5H1C0.529 5 0.293 5 0.146 4.854C-8.9407e-08 4.707 0 4.47 0 4ZM0 13C0 14.886 -5.96046e-08 15.828 0.586 16.414C1.172 17 2.114 17 4 17H16C17.886 17 18.828 17 19.414 16.414C20 15.828 20 14.886 20 13V8C20 7.529 20 7.293 19.854 7.146C19.707 7 19.47 7 19 7H1C0.529 7 0.293 7 0.146 7.146C-8.9407e-08 7.293 0 7.53 0 8V13Z" fill="#272B2C"/>
</svg>
