<svg width="24" height="24" viewBox="0 0 24 24" fill="none" xmlns="http://www.w3.org/2000/svg">
<rect x="0.15" y="0.15" width="23.7" height="23.7" rx="4.85" fill="#72E25A"/>
<rect x="0.15" y="0.15" width="23.7" height="23.7" rx="4.85" stroke="#272B2C" stroke-width="0.3"/>
<path d="M8.375 15.25C7.6875 15.25 7.13125 15.8125 7.13125 16.5C7.13125 17.1875 7.6875 17.75 8.375 17.75C9.0625 17.75 9.625 17.1875 9.625 16.5C9.625 15.8125 9.0625 15.25 8.375 15.25ZM4.625 5.25V6.5H5.875L8.125 11.2438L7.28125 12.775C7.18125 12.95 7.125 13.1562 7.125 13.375C7.125 14.0625 7.6875 14.625 8.375 14.625H15.875V13.375H8.6375C8.55 13.375 8.48125 13.3062 8.48125 13.2188L8.5 13.1438L9.0625 12.125H13.7188C14.1875 12.125 14.6 11.8688 14.8125 11.4813L17.05 7.425C17.1016 7.32962 17.1275 7.22249 17.1253 7.11408C17.1231 7.00567 17.0928 6.89969 17.0374 6.80649C16.982 6.71329 16.9033 6.63606 16.8091 6.58234C16.7149 6.52862 16.6084 6.50025 16.5 6.5H7.25625L6.66875 5.25H4.625ZM14.625 15.25C13.9375 15.25 13.3813 15.8125 13.3813 16.5C13.3813 17.1875 13.9375 17.75 14.625 17.75C15.3125 17.75 15.875 17.1875 15.875 16.5C15.875 15.8125 15.3125 15.25 14.625 15.25Z" fill="#272B2C"/>
</svg>
