<svg width="10" height="6" viewBox="0 0 10 6" fill="none" xmlns="http://www.w3.org/2000/svg">
<path fill-rule="evenodd" clip-rule="evenodd" d="M5.54025 5.52571C5.3994 5.66615 5.20839 5.74504 5.00923 5.74504C4.81007 5.74504 4.61906 5.66615 4.47821 5.52571L0.229299 1.28795C0.157562 1.21885 0.100342 1.13618 0.0609786 1.04479C0.0216147 0.953394 0.000894977 0.855095 2.83584e-05 0.755627C-0.00083826 0.65616 0.0181658 0.557517 0.0559312 0.465453C0.0936966 0.373389 0.149467 0.289748 0.219989 0.219411C0.290511 0.149075 0.374371 0.0934503 0.466677 0.055784C0.558983 0.0181177 0.657887 -0.00083606 0.757616 2.82845e-05C0.857345 0.000892629 0.955902 0.021558 1.04754 0.0608185C1.13917 0.100079 1.22205 0.157148 1.29134 0.228697L5.00923 3.93683L8.72712 0.228697C8.86878 0.0922388 9.0585 0.0167319 9.25544 0.0184387C9.45237 0.0201455 9.64075 0.0989293 9.78001 0.237822C9.91927 0.376714 9.99826 0.564603 9.99997 0.761019C10.0017 0.957435 9.92598 1.14666 9.78916 1.28795L5.54025 5.52571Z" fill="#272B2C" fill-opacity="0.7"/>
</svg>
