<svg width="16" height="18" viewBox="0 0 16 18" fill="none" xmlns="http://www.w3.org/2000/svg">
<path d="M6.125 0C5.95924 0 5.80027 0.0790178 5.68306 0.21967C5.56585 0.360322 5.5 0.551088 5.5 0.75C5.5 0.948912 5.56585 1.13968 5.68306 1.28033C5.80027 1.42098 5.95924 1.5 6.125 1.5H7.375V16.5H6.125C5.95924 16.5 5.80027 16.579 5.68306 16.7197C5.56585 16.8603 5.5 17.0511 5.5 17.25C5.5 17.4489 5.56585 17.6397 5.68306 17.7803C5.80027 17.921 5.95924 18 6.125 18H9.875C10.0408 18 10.1997 17.921 10.3169 17.7803C10.4342 17.6397 10.5 17.4489 10.5 17.25C10.5 17.0511 10.4342 16.8603 10.3169 16.7197C10.1997 16.579 10.0408 16.5 9.875 16.5H8.625V1.5H9.875C10.0408 1.5 10.1997 1.42098 10.3169 1.28033C10.4342 1.13968 10.5 0.948912 10.5 0.75C10.5 0.551088 10.4342 0.360322 10.3169 0.21967C10.1997 0.0790178 10.0408 0 9.875 0H6.125ZM3 3H6.125V15H3C2.33696 15 1.70107 14.6839 1.23223 14.1213C0.763392 13.5587 0.5 12.7956 0.5 12V6C0.5 5.20435 0.763392 4.44129 1.23223 3.87868C1.70107 3.31607 2.33696 3 3 3ZM13 15H9.875V3H13C13.663 3 14.2989 3.31607 14.7678 3.87868C15.2366 4.44129 15.5 5.20435 15.5 6V12C15.5 12.7956 15.2366 13.5587 14.7678 14.1213C14.2989 14.6839 13.663 15 13 15Z" fill="#272B2C"/>
</svg>
