<svg width="16" height="16" viewBox="0 0 16 16" fill="none" xmlns="http://www.w3.org/2000/svg">
<path d="M13.8333 0.5H2.16667C1.25 0.5 0.5 1.25 0.5 2.16667V13.8333C0.5 14.75 1.25 15.5 2.16667 15.5H13.8333C14.75 15.5 15.5 14.75 15.5 13.8333V2.16667C15.5 1.25 14.75 0.5 13.8333 0.5ZM4.66667 12.1667C4.20833 12.1667 3.83333 11.7917 3.83333 11.3333V8.83333C3.83333 8.375 4.20833 8 4.66667 8C5.125 8 5.5 8.375 5.5 8.83333V11.3333C5.5 11.7917 5.125 12.1667 4.66667 12.1667ZM8 12.1667C7.54167 12.1667 7.16667 11.7917 7.16667 11.3333V10.5C7.16667 10.0417 7.54167 9.66667 8 9.66667C8.45833 9.66667 8.83333 10.0417 8.83333 10.5V11.3333C8.83333 11.7917 8.45833 12.1667 8 12.1667ZM8 8C7.54167 8 7.16667 7.625 7.16667 7.16667C7.16667 6.70833 7.54167 6.33333 8 6.33333C8.45833 6.33333 8.83333 6.70833 8.83333 7.16667C8.83333 7.625 8.45833 8 8 8ZM11.3333 12.1667C10.875 12.1667 10.5 11.7917 10.5 11.3333V4.66667C10.5 4.20833 10.875 3.83333 11.3333 3.83333C11.7917 3.83333 12.1667 4.20833 12.1667 4.66667V11.3333C12.1667 11.7917 11.7917 12.1667 11.3333 12.1667Z" fill="#272B2C"/>
</svg>
