<svg width="306" height="175" viewBox="0 0 306 175" fill="none" xmlns="http://www.w3.org/2000/svg">
<g clip-path="url(#clip0_353_994)">
<rect width="306" height="175" rx="15" fill="#68BB69"/>
<path fill-rule="evenodd" clip-rule="evenodd" d="M15.8157 -4.77478C36.9585 -11.8716 58.9088 -15.3292 83.1697 -7.93877C106.588 -0.805116 128.133 14.1834 145.707 34.793C165.106 57.5431 180.52 83.3816 184.611 111.026C189.62 144.87 193.244 184.421 170.374 201.465C147.519 218.499 111.246 197.81 79.5828 189.301C47.7048 180.734 14.387 178.543 -11.4831 152.593C-41.7606 122.221 -73.2082 79.0853 -66.847 42.4159C-60.6192 6.51445 -15.9822 5.89849 15.8157 -4.77478Z" fill="#72E25A"/>
<path d="M254.39 22.769C249.276 22.769 245 26.4355 245 30.8178V45.1832C245 49.5641 249.278 53.2306 254.39 53.2306H277.611C282.722 53.2306 287 49.5641 287 45.1818V30.8178C287 26.4369 282.722 22.769 277.61 22.769H254.39ZM254.39 25.5383H277.611C280.899 25.5383 283.769 27.9987 283.769 30.8178V32.4614H274.077C273.18 32.4614 272.462 31.8452 272.462 31.0767C272.462 30.3083 273.18 29.6921 274.077 29.6921C274.505 29.6921 274.916 29.5462 275.219 29.2866C275.522 29.0269 275.692 28.6747 275.692 28.3075C275.692 27.9403 275.522 27.5881 275.219 27.3284C274.916 27.0688 274.505 26.9229 274.077 26.9229C271.42 26.9229 269.231 28.799 269.231 31.0767C269.231 32.8657 270.594 34.3915 272.462 34.9717V41.8504C270.526 42.9775 269.231 44.8689 269.231 46.9998C269.231 48.2778 269.704 49.4658 270.492 50.4614H261.509C262.326 49.4423 262.765 48.236 262.769 46.9998C262.769 44.8703 261.474 42.9775 259.538 41.8504V34.9703C261.406 34.3915 262.769 32.8657 262.769 31.0767C262.769 28.799 260.58 26.9229 257.923 26.9229H254.692C254.642 26.9208 254.591 26.9208 254.54 26.9229C254.49 26.9209 254.44 26.9209 254.39 26.9229C253.962 26.9572 253.567 27.136 253.292 27.42C253.018 27.7039 252.886 28.0697 252.926 28.437C252.966 28.8042 253.175 29.1427 253.506 29.3781C253.837 29.6135 254.264 29.7265 254.692 29.6921H257.923C258.82 29.6921 259.538 30.3083 259.538 31.0767C259.538 31.8452 258.82 32.4614 257.923 32.4614H248.231V30.8164C248.231 27.9987 251.101 25.5383 254.39 25.5383ZM248.231 35.2306H256.308V40.769H248.231V35.2306ZM275.692 35.2306H283.769V40.769H275.692V35.2306ZM248.231 43.5383H255.5C257.663 43.5383 259.538 45.1458 259.538 46.9998C259.538 48.8538 257.663 50.4614 255.5 50.4614H254.389C251.101 50.4614 248.231 48.0009 248.231 45.1818V43.5383ZM276.5 43.5383H283.769V45.1832C283.769 48.0009 280.899 50.4614 277.61 50.4614H276.5C274.337 50.4614 272.462 48.8538 272.462 46.9998C272.462 45.1458 274.337 43.5383 276.5 43.5383Z" fill="#272B2C"/>
</g>
<rect x="0.5" y="0.5" width="305" height="174" rx="14.5" stroke="black"/>
<defs>
<clipPath id="clip0_353_994">
<rect width="306" height="175" rx="15" fill="white"/>
</clipPath>
</defs>
</svg>
