<svg width="1440" height="820" viewBox="0 0 1440 820" fill="none" xmlns="http://www.w3.org/2000/svg">
<g clip-path="url(#clip0_205_742)">
<rect width="1440" height="820" fill="white"/>
<ellipse cx="683.5" cy="738" rx="683.5" ry="738" transform="matrix(-1 0 0 1 1744 -100)" fill="url(#paint0_radial_205_742)"/>
<g filter="url(#filter0_f_205_742)">
<ellipse cx="323.608" cy="336.913" rx="323.608" ry="336.913" transform="matrix(-1 0 0 1 1553.76 103.218)" fill="#274727"/>
</g>
<rect x="0.226953" y="0.360602" width="120.388" height="115.688" transform="matrix(0.896783 0.44247 0.0110292 0.999939 1142.07 132.438)" stroke="#72E25A" stroke-width="0.5"/>
<rect x="0.218526" y="0.123717" width="123.624" height="115.688" transform="matrix(0.863077 -0.505073 0.0110292 0.999939 1250.48 186.139)" stroke="#72E25A" stroke-width="0.5"/>
<rect x="0.439965" y="-0.0156506" width="123.624" height="120.388" transform="matrix(0.863077 -0.505073 0.896783 0.44247 1142.12 132.857)" stroke="#72E25A" stroke-width="0.5"/>
<rect x="0.226953" y="0.360602" width="120.388" height="115.688" transform="matrix(0.896783 0.44247 0.0110292 0.999939 1251.8 300.997)" stroke="#72E25A" stroke-width="0.5"/>
<rect x="0.218526" y="0.123717" width="123.624" height="115.688" transform="matrix(0.863077 -0.505073 0.0110292 0.999939 1360.22 354.697)" stroke="#72E25A" stroke-width="0.5"/>
<rect x="0.439965" y="-0.0156506" width="123.624" height="120.388" transform="matrix(0.863077 -0.505073 0.896783 0.44247 1251.86 301.416)" stroke="#72E25A" stroke-width="0.5"/>
<rect x="0.226953" y="0.360602" width="120.388" height="115.688" transform="matrix(0.896783 0.44247 0.0110292 0.999939 1361.53 469.554)" stroke="#72E25A" stroke-width="0.5"/>
<rect x="0.439965" y="-0.0156506" width="123.624" height="120.388" transform="matrix(0.863077 -0.505073 0.896783 0.44247 1361.59 469.973)" stroke="#72E25A" stroke-width="0.5"/>
<rect x="0.226953" y="0.360602" width="120.388" height="115.688" transform="matrix(0.896783 0.44247 0.0110292 0.999939 1254.19 648.3)" stroke="#72E25A" stroke-width="0.5"/>
<rect x="0.218526" y="0.123717" width="123.624" height="115.688" transform="matrix(0.863077 -0.505073 0.0110292 0.999939 1362.61 702.001)" stroke="#72E25A" stroke-width="0.5"/>
<rect x="0.439965" y="-0.0156506" width="123.624" height="120.388" transform="matrix(0.863077 -0.505073 0.896783 0.44247 1254.24 648.718)" stroke="#72E25A" stroke-width="0.5"/>
<rect x="0.218526" y="0.123717" width="123.624" height="115.688" transform="matrix(0.863077 -0.505073 0.0110292 0.999939 1259.68 880.762)" stroke="#72E25A" stroke-width="0.5"/>
<rect x="0.439965" y="-0.0156506" width="123.624" height="120.388" transform="matrix(0.863077 -0.505073 0.896783 0.44247 1151.31 827.48)" stroke="#72E25A" stroke-width="0.5"/>
<rect x="0.226953" y="0.360602" width="120.388" height="115.688" transform="matrix(0.896783 0.44247 0.0110292 0.999939 1357.67 122.245)" stroke="#72E25A" stroke-width="0.5"/>
<rect x="0.439965" y="-0.0156506" width="123.624" height="120.388" transform="matrix(0.863077 -0.505073 0.896783 0.44247 1357.73 122.664)" stroke="#72E25A" stroke-width="0.5"/>
<rect x="0.226953" y="0.360602" width="120.388" height="115.688" transform="matrix(0.896783 0.44247 0.0110292 0.999939 1366.86 816.868)" stroke="#72E25A" stroke-width="0.5"/>
<rect x="0.439965" y="-0.0156506" width="123.624" height="120.388" transform="matrix(0.863077 -0.505073 0.896783 0.44247 1366.92 817.287)" stroke="#72E25A" stroke-width="0.5"/>
<rect x="0.226953" y="0.360602" width="120.388" height="115.688" transform="matrix(0.896783 0.44247 0.0110292 0.999939 1248.67 -46.3096)" stroke="#72E25A" stroke-width="0.5"/>
<rect x="0.218526" y="0.123717" width="123.624" height="115.688" transform="matrix(0.863077 -0.505073 0.0110292 0.999939 1357.09 7.39065)" stroke="#72E25A" stroke-width="0.5"/>
<rect x="0.439965" y="-0.0156506" width="123.624" height="120.388" transform="matrix(0.863077 -0.505073 0.896783 0.44247 1248.73 -45.891)" stroke="#72E25A" stroke-width="0.5"/>
<rect x="0.226953" y="0.360602" width="120.388" height="115.688" transform="matrix(0.896783 0.44247 0.0110292 0.999939 1031.6 -37.4153)" stroke="#72E25A" stroke-width="0.5"/>
<rect x="0.218526" y="0.123717" width="123.624" height="115.688" transform="matrix(0.863077 -0.505073 0.0110292 0.999939 1140.02 16.2849)" stroke="#72E25A" stroke-width="0.5"/>
<rect x="0.439965" y="-0.0156506" width="123.624" height="120.388" transform="matrix(0.863077 -0.505073 0.896783 0.44247 1031.66 -36.9965)" stroke="#72E25A" stroke-width="0.5"/>
</g>
<defs>
<filter id="filter0_f_205_742" x="806.541" y="3.21777" width="847.217" height="873.826" filterUnits="userSpaceOnUse" color-interpolation-filters="sRGB">
<feFlood flood-opacity="0" result="BackgroundImageFix"/>
<feBlend mode="normal" in="SourceGraphic" in2="BackgroundImageFix" result="shape"/>
<feGaussianBlur stdDeviation="50" result="effect1_foregroundBlur_205_742"/>
</filter>
<radialGradient id="paint0_radial_205_742" cx="0" cy="0" r="1" gradientUnits="userSpaceOnUse" gradientTransform="translate(684.727 739.385) rotate(91.4981) scale(736.867 685.089)">
<stop stop-color="#274727"/>
<stop offset="0.486203" stop-color="#497C49"/>
<stop offset="0.695" stop-color="#68BB69"/>
<stop offset="0.766356" stop-color="#79E97A"/>
<stop offset="1" stop-color="#FFFDFD"/>
</radialGradient>
<clipPath id="clip0_205_742">
<rect width="1440" height="820" fill="white"/>
</clipPath>
</defs>
</svg>
