<svg width="18" height="18" viewBox="0 0 18 18" fill="none" xmlns="http://www.w3.org/2000/svg">
<path d="M8.16228 2.9V6.13333C8.16229 6.40106 8.10942 6.66615 8.00671 6.91339C7.90401 7.16063 7.75349 7.38515 7.56379 7.57407C7.37409 7.76299 7.14896 7.91259 6.9013 8.01429C6.65364 8.11598 6.38834 8.16776 6.12062 8.16667H2.90395C2.63695 8.16829 2.37237 8.11598 2.12608 8.01288C1.87978 7.90978 1.65684 7.75801 1.47062 7.56667C1.28155 7.37917 1.13182 7.15581 1.03022 6.90967C0.928618 6.66354 0.87719 6.3996 0.87895 6.13333V2.90833C0.878945 2.3705 1.09203 1.85457 1.47155 1.47349C1.85107 1.0924 2.36612 0.877204 2.90395 0.875H6.12895C6.39567 0.875256 6.65969 0.928419 6.90572 1.03141C7.15176 1.1344 7.37492 1.28517 7.56228 1.475C7.75186 1.66082 7.90254 1.88252 8.00556 2.12717C8.10857 2.37183 8.16185 2.63454 8.16228 2.9ZM17.1206 2.90833V6.13333C17.1163 6.66983 16.9018 7.18326 16.5232 7.56341C16.1446 7.94356 15.6321 8.16014 15.0956 8.16667H11.8623C11.3233 8.16337 10.8065 7.95129 10.4206 7.575C10.232 7.38541 10.0827 7.16048 9.98119 6.9131C9.87966 6.66572 9.82793 6.40074 9.82895 6.13333V2.90833C9.82828 2.64147 9.88102 2.37718 9.98406 2.13102C10.0871 1.88485 10.2384 1.6618 10.4289 1.475C10.6163 1.28517 10.8395 1.1344 11.0855 1.03141C11.3315 0.928419 11.5956 0.875256 11.8623 0.875H15.0873C15.6252 0.879356 16.1399 1.09498 16.5203 1.47536C16.9006 1.85575 17.1163 2.37041 17.1206 2.90833ZM17.1206 11.8667V15.0917C17.1163 15.6282 16.9018 16.1416 16.5232 16.5217C16.1446 16.9019 15.6321 17.1185 15.0956 17.125H11.8623C11.3199 17.1305 10.7967 16.9242 10.4039 16.55C10.2146 16.361 10.0648 16.1361 9.96324 15.8886C9.86166 15.6411 9.81034 15.3759 9.81228 15.1083V11.8833C9.81161 11.6165 9.86435 11.3522 9.96739 11.106C10.0704 10.8599 10.2217 10.6368 10.4123 10.45C10.5996 10.2602 10.8228 10.1094 11.0688 10.0064C11.3149 9.90342 11.5789 9.85026 11.8456 9.85H15.0706C15.6085 9.85436 16.1232 10.07 16.5036 10.4504C16.884 10.8307 17.0996 11.3454 17.1039 11.8833L17.1206 11.8667ZM8.16228 11.875V15.1C8.15573 15.6379 7.93799 16.1517 7.55605 16.5305C7.17411 16.9093 6.65856 17.1229 6.12062 17.125H2.90395C2.63771 17.1261 2.3739 17.0745 2.12771 16.9731C1.88153 16.8717 1.65786 16.7226 1.4696 16.5344C1.28134 16.3461 1.13222 16.1224 1.03085 15.8762C0.929473 15.6301 0.877848 15.3662 0.87895 15.1V11.875C0.881097 11.3371 1.09461 10.8215 1.47344 10.4396C1.85226 10.0576 2.36604 9.83989 2.90395 9.83333H6.12895C6.66912 9.83886 7.18602 10.054 7.57062 10.4333C7.95069 10.8168 8.16343 11.3351 8.16228 11.875Z" fill="#272B2C"/>
</svg>
