<svg width="17" height="18" viewBox="0 0 17 18" fill="none" xmlns="http://www.w3.org/2000/svg">
<path fill-rule="evenodd" clip-rule="evenodd" d="M9.89894 0.793415C9.59061 0.666748 9.19894 0.666748 8.41644 0.666748C7.63394 0.666748 7.24311 0.666748 6.93394 0.793415C6.73051 0.876536 6.54553 0.999066 6.38965 1.15395C6.23376 1.30884 6.11004 1.49303 6.02561 1.69591C5.94727 1.88175 5.91727 2.09925 5.90477 2.41508C5.89883 2.64383 5.83483 2.86732 5.7188 3.06454C5.60276 3.26177 5.4385 3.42627 5.24144 3.54258C5.04039 3.65433 4.81439 3.71354 4.58438 3.7147C4.35436 3.71587 4.12778 3.65896 3.92561 3.54925C3.64394 3.40091 3.43977 3.31925 3.23811 3.29258C2.79693 3.23502 2.35083 3.35358 1.99644 3.62258C1.73144 3.82425 1.53561 4.16091 1.14477 4.83341C0.753108 5.50591 0.558108 5.84175 0.513941 6.17091C0.455608 6.60925 0.575608 7.05258 0.847275 7.40341C0.970608 7.56341 1.14477 7.69758 1.41394 7.86591C1.81144 8.11341 2.06644 8.53508 2.06644 9.00008C2.06644 9.46508 1.81144 9.88675 1.41477 10.1334C1.14477 10.3026 0.970608 10.4367 0.846441 10.5967C0.712747 10.7703 0.614566 10.9684 0.557513 11.1799C0.50046 11.3914 0.485654 11.612 0.513941 11.8292C0.558108 12.1576 0.753108 12.4942 1.14477 13.1667C1.53644 13.8392 1.73144 14.1751 1.99644 14.3776C2.34977 14.6467 2.79644 14.7651 3.23811 14.7076C3.43977 14.6809 3.64394 14.5992 3.92561 14.4509C4.12788 14.3411 4.35462 14.2841 4.5848 14.2852C4.81497 14.2864 5.04113 14.3457 5.24227 14.4576C5.64727 14.6909 5.88727 15.1201 5.90477 15.5851C5.91727 15.9017 5.94727 16.1184 6.02561 16.3042C6.19561 16.7126 6.52227 17.0376 6.93394 17.2067C7.24227 17.3334 7.63394 17.3334 8.41644 17.3334C9.19894 17.3334 9.59061 17.3334 9.89894 17.2067C10.1024 17.1236 10.2873 17.0011 10.4432 16.8462C10.5991 16.6913 10.7228 16.5071 10.8073 16.3042C10.8856 16.1184 10.9156 15.9017 10.9281 15.5851C10.9448 15.1201 11.1856 14.6901 11.5914 14.4576C11.7925 14.3458 12.0185 14.2866 12.2485 14.2855C12.4785 14.2843 12.7051 14.3412 12.9073 14.4509C13.1889 14.5992 13.3931 14.6809 13.5948 14.7076C14.0364 14.7659 14.4831 14.6467 14.8364 14.3776C15.1014 14.1759 15.2973 13.8392 15.6881 13.1667C16.0798 12.4942 16.2748 12.1584 16.3189 11.8292C16.3471 11.612 16.3322 11.3913 16.275 11.1798C16.2178 10.9683 16.1194 10.7702 15.9856 10.5967C15.8623 10.4367 15.6881 10.3026 15.4189 10.1342C15.0214 9.88675 14.7664 9.46508 14.7664 9.00008C14.7664 8.53508 15.0214 8.11341 15.4181 7.86675C15.6881 7.69758 15.8623 7.56341 15.9864 7.40341C16.1201 7.2299 16.2183 7.03174 16.2754 6.82026C16.3324 6.60878 16.3472 6.38812 16.3189 6.17091C16.2748 5.84258 16.0798 5.50591 15.6881 4.83341C15.2964 4.16091 15.1014 3.82508 14.8364 3.62258C14.4821 3.35358 14.036 3.23502 13.5948 3.29258C13.3931 3.31925 13.1889 3.40091 12.9073 3.54925C12.705 3.65911 12.4783 3.7161 12.2481 3.71493C12.0179 3.71376 11.7918 3.65448 11.5906 3.54258C11.3937 3.42617 11.2296 3.26162 11.1137 3.0644C10.9978 2.86718 10.934 2.64375 10.9281 2.41508C10.9156 2.09841 10.8856 1.88175 10.8073 1.69591C10.7228 1.49303 10.5991 1.30884 10.4432 1.15395C10.2873 0.999066 10.1024 0.876536 9.89894 0.793415ZM8.41644 11.5001C9.80811 11.5001 10.9356 10.3809 10.9356 9.00008C10.9356 7.61925 9.80727 6.50008 8.41644 6.50008C7.02561 6.50008 5.89727 7.61925 5.89727 9.00008C5.89727 10.3809 7.02561 11.5001 8.41644 11.5001Z" fill="#272B2C"/>
</svg>
